<svg width="28" height="28" fill="none" xmlns="http://www.w3.org/2000/svg"><path d="M4.667 18.667c0 1.026.455 1.948 1.166 2.59v2.076A1.17 1.17 0 0 0 7 24.5h1.167a1.17 1.17 0 0 0 1.166-1.167v-1.166h9.334v1.166a1.17 1.17 0 0 0 1.166 1.167H21a1.17 1.17 0 0 0 1.167-1.167v-2.076a3.484 3.484 0 0 0 1.166-2.59V7c0-4.083-4.176-4.667-9.333-4.667S4.667 2.917 4.667 7v11.667zm4.083 1.166c-.968 0-1.75-.781-1.75-1.75 0-.968.782-1.75 1.75-1.75s1.75.782 1.75 1.75c0 .969-.782 1.75-1.75 1.75zm10.5 0c-.968 0-1.75-.781-1.75-1.75 0-.968.782-1.75 1.75-1.75s1.75.782 1.75 1.75c0 .969-.782 1.75-1.75 1.75zm1.75-7H7V7h14v5.833z" fill="#005A30"/></svg>