<svg width="29" height="28" fill="none" xmlns="http://www.w3.org/2000/svg"><path d="M19.296 13.426a5.543 5.543 0 0 0-5.537 5.537 5.543 5.543 0 0 0 5.537 5.537 5.543 5.543 0 0 0 5.537-5.537 5.543 5.543 0 0 0-5.537-5.537zm2.461 6.152h-2.46a.615.615 0 0 1-.616-.615v-2.461a.615.615 0 1 1 1.23 0v1.846h1.846a.615.615 0 1 1 0 1.23zM23.562 5.387a.61.61 0 0 0-.615-.616H19.87v1.846a.61.61 0 0 1-.616.615.61.61 0 0 1-.615-.615V4.771h-2.46v1.846a.61.61 0 0 1-.616.615.61.61 0 0 1-.615-.615V4.771h-2.461v1.846a.61.61 0 0 1-.616.615.61.61 0 0 1-.615-.615V4.771h-2.46v1.846a.61.61 0 0 1-.616.615.61.61 0 0 1-.615-.615V4.771H4.449a.61.61 0 0 0-.616.616v3.076h19.729V5.387z" fill="#005A30"/><path d="M13.103 15.846h.148c.224-.437.478-.856.788-1.23h-.936a.615.615 0 1 1 0-1.231h1.23c.252 0 .468.152.563.369a6.735 6.735 0 0 1 4.36-1.6h-1.231a.615.615 0 1 1 0-1.23h1.23a.615.615 0 1 1 0 1.23c1.635 0 3.136.583 4.307 1.552V9.693H3.833v11.69c0 .34.276.615.616.615h8.786a6.719 6.719 0 0 1-.747-3.076c0-.677.121-1.323.307-1.94a.606.606 0 0 1 .308-1.136zm0-4.922h1.23a.615.615 0 1 1 0 1.23h-1.23a.615.615 0 1 1 0-1.23zm-3.691 8.613H8.18a.615.615 0 1 1 0-1.23h1.23a.615.615 0 1 1 0 1.23zm0-2.46H8.18a.615.615 0 1 1 0-1.231h1.23a.615.615 0 1 1 0 1.23zm0-2.462H8.18a.615.615 0 1 1 0-1.23h1.23a.615.615 0 1 1 0 1.23zm0-2.46H8.18a.615.615 0 1 1 0-1.231h1.23a.615.615 0 1 1 0 1.23zM8.796 4.115a.61.61 0 0 0-.615-.615.61.61 0 0 0-.615.615v.656h1.23v-.656zM12.488 4.115a.61.61 0 0 0-.616-.615.61.61 0 0 0-.615.615v.656h1.23v-.656zM16.18 4.115a.61.61 0 0 0-.616-.615.61.61 0 0 0-.615.615v.656h1.23v-.656zM19.87 4.115a.61.61 0 0 0-.615-.615.61.61 0 0 0-.615.615v.656h1.23v-.656z" fill="#005A30"/></svg>