<svg width="34" height="34" fill="none" xmlns="http://www.w3.org/2000/svg"><path d="M18.125 17 13 22.125l2.333 2.375 7.5-7.5-7.5-7.5L13 11.875 18.125 17zM17 33.667c-2.306 0-4.472-.438-6.5-1.313-2.028-.875-3.792-2.062-5.292-3.562S2.521 25.528 1.646 23.5.333 19.306.333 17c0-2.305.438-4.472 1.313-6.5.875-2.028 2.062-3.792 3.562-5.292S8.472 2.522 10.5 1.647 14.694.333 17 .333s4.472.438 6.5 1.313c2.028.875 3.792 2.063 5.292 3.563s2.687 3.263 3.562 5.291c.875 2.028 1.313 4.195 1.313 6.5 0 2.306-.438 4.472-1.313 6.5-.875 2.028-2.062 3.792-3.562 5.292s-3.264 2.687-5.292 3.562-4.194 1.313-6.5 1.313z" fill="#FEFEFE" fill-opacity=".5"/></svg>