<svg width="34" height="34" fill="none" xmlns="http://www.w3.org/2000/svg"><path d="M15.875 17 21 11.875 18.667 9.5l-7.5 7.5 7.5 7.5L21 22.125 15.875 17zM17 .333c2.306 0 4.472.438 6.5 1.313 2.028.875 3.792 2.062 5.292 3.562s2.687 3.264 3.562 5.292 1.313 4.194 1.313 6.5c0 2.305-.438 4.472-1.313 6.5-.875 2.028-2.062 3.791-3.562 5.291-1.5 1.5-3.264 2.688-5.292 3.563s-4.194 1.313-6.5 1.313-4.472-.438-6.5-1.313c-2.028-.875-3.792-2.063-5.292-3.563S2.521 25.529 1.646 23.5C.77 21.472.333 19.305.333 17c0-2.306.438-4.472 1.313-6.5.875-2.028 2.062-3.792 3.562-5.292S8.472 2.521 10.5 1.646 14.694.333 17 .333z" fill="#FEFEFE" fill-opacity=".5"/></svg>