<svg width="51" height="51" fill="none" xmlns="http://www.w3.org/2000/svg"><path d="M22.5 12.875v-6.25c0-1.75.604-3.23 1.812-4.438C25.52.98 27 .375 28.75.375H35v6.25c0 1.75-.605 3.23-1.813 4.438-1.208 1.208-2.687 1.812-4.437 1.812H22.5zm-13.75 15c-2.417 0-4.48-.854-6.188-2.563C.854 23.605 0 21.543 0 19.125v-8.75h8.75c2.416 0 4.479.854 6.187 2.563 1.708 1.708 2.563 3.77 2.563 6.187v8.75H8.75zM35 50.375c-1.625 0-3.177-.25-4.657-.75a15.033 15.033 0 0 1-4.03-2.063l-2.063 2.063c-.459.458-1.042.688-1.75.688-.709 0-1.292-.23-1.75-.688-.459-.458-.688-1.042-.688-1.75s.23-1.292.688-1.75l2.062-2.063a15.033 15.033 0 0 1-2.062-4.03 14.44 14.44 0 0 1-.75-4.657c0-4.167 1.458-7.719 4.375-10.656C27.29 21.78 30.833 20.312 35 20.312h15.062v15.063c0 4.167-1.469 7.708-4.406 10.625-2.938 2.917-6.49 4.375-10.656 4.375zm0-5c2.791 0 5.145-.98 7.062-2.938 1.917-1.958 2.875-4.312 2.875-7.062v-10H35c-2.75 0-5.105.969-7.063 2.906C25.98 30.22 25 32.583 25 35.375c0 .958.114 1.865.343 2.719.23.854.573 1.656 1.032 2.406l6.875-6.875c.458-.458 1.041-.688 1.75-.688.708 0 1.291.23 1.75.688.458.458.687 1.042.687 1.75s-.23 1.292-.687 1.75L29.875 44c.75.458 1.552.802 2.406 1.031.854.23 1.76.344 2.719.344z" fill="#21915C"/></svg>