<svg width="51" height="51" fill="none" xmlns="http://www.w3.org/2000/svg"><path d="M22.5 12.875v-6.25c0-1.75.604-3.23 1.813-4.438C25.52.98 27 .375 28.75.375H35v6.25c0 1.75-.604 3.23-1.813 4.438-1.208 1.208-2.687 1.812-4.437 1.812H22.5zm-13.75 15c-2.417 0-4.48-.854-6.188-2.563C.855 23.605 0 21.543 0 19.125v-8.75h8.75c2.417 0 4.48.854 6.188 2.563 1.708 1.708 2.562 3.77 2.562 6.187v8.75H8.75zM35 50.375c-1.625 0-3.177-.25-4.656-.75a15.033 15.033 0 0 1-4.032-2.063l-2.062 2.063c-.458.458-1.042.688-1.75.688s-1.292-.23-1.75-.688c-.458-.458-.688-1.042-.688-1.75s.23-1.292.688-1.75l2.063-2.063a15.033 15.033 0 0 1-2.063-4.03 14.44 14.44 0 0 1-.75-4.657c0-4.167 1.458-7.719 4.375-10.656 2.917-2.938 6.458-4.407 10.625-4.407h15.063v15.063c0 4.167-1.47 7.708-4.407 10.625-2.937 2.917-6.49 4.375-10.656 4.375zm0-5c2.792 0 5.146-.98 7.063-2.938 1.916-1.958 2.874-4.312 2.874-7.062v-10H35c-2.75 0-5.104.969-7.063 2.906C25.98 30.22 25 32.583 25 35.375c0 .958.115 1.865.344 2.719.229.854.573 1.656 1.031 2.406l6.875-6.875c.458-.458 1.042-.688 1.75-.688s1.292.23 1.75.688c.458.458.688 1.042.688 1.75s-.23 1.292-.688 1.75L29.875 44c.75.458 1.552.802 2.406 1.031.854.23 1.76.344 2.719.344z" fill="#E6F2EC"/></svg>