<svg width="20" height="20" fill="none" xmlns="http://www.w3.org/2000/svg"><path d="M10 17.583a7.398 7.398 0 0 1-2.948-.593 7.637 7.637 0 0 1-2.415-1.626 7.637 7.637 0 0 1-1.627-2.416A7.399 7.399 0 0 1 2.417 10c0-1.052.198-2.037.593-2.954a7.657 7.657 0 0 1 1.627-2.41A7.637 7.637 0 0 1 7.052 3.01 7.399 7.399 0 0 1 10 2.417c1.053 0 2.037.197 2.955.593.917.395 1.72.937 2.41 1.626a7.657 7.657 0 0 1 1.626 2.41c.395.917.593 1.902.593 2.954a7.399 7.399 0 0 1-.593 2.948 7.637 7.637 0 0 1-1.627 2.416 7.658 7.658 0 0 1-2.41 1.626 7.384 7.384 0 0 1-2.954.593zm0-1.122c.3-.3.582-.789.845-1.467a11.65 11.65 0 0 0 .606-2.267H8.55c.152.855.356 1.621.614 2.3.257.677.536 1.156.836 1.434zm-1.343-.104c-.263-.416-.502-.94-.714-1.573a12.296 12.296 0 0 1-.49-2.057H4.107a6.426 6.426 0 0 0 1.865 2.4 6.026 6.026 0 0 0 2.686 1.23zm2.686 0a6.026 6.026 0 0 0 2.687-1.23 6.426 6.426 0 0 0 1.865-2.4h-3.348c-.14.744-.317 1.432-.53 2.065-.212.632-.436 1.154-.674 1.565zm-7.615-4.713h3.619a9.177 9.177 0 0 1-.073-.87 24.222 24.222 0 0 1 0-1.611c.01-.27.034-.54.073-.807h-3.62c-.08.269-.137.542-.173.82a6.432 6.432 0 0 0 0 1.648c.036.277.094.551.174.82zm4.723 0h3.1c.037-.31.062-.597.071-.861a21.584 21.584 0 0 0 0-1.576 9.16 9.16 0 0 0-.072-.851h-3.1a9.19 9.19 0 0 0-.072.85 22.498 22.498 0 0 0 0 1.587c.01.272.034.555.073.851zm4.203 0h3.619c.08-.269.138-.543.174-.82a6.44 6.44 0 0 0 0-1.658 4.612 4.612 0 0 0-.174-.81h-3.619c.039.296.063.585.072.87a24.157 24.157 0 0 1 0 1.611 7.64 7.64 0 0 1-.072.807zm-.107-4.372h3.348c-.446-.973-1.063-1.773-1.853-2.4a6.205 6.205 0 0 0-2.699-1.237c.264.443.5.977.707 1.601.207.625.373 1.304.497 2.036zm-3.997 0h2.9c-.151-.849-.36-1.62-.625-2.31-.266-.692-.54-1.166-.825-1.423-.284.257-.559.731-.824 1.422a12.664 12.664 0 0 0-.626 2.311zm-4.444 0h3.348c.124-.732.29-1.411.497-2.036a8.167 8.167 0 0 1 .706-1.601 6.153 6.153 0 0 0-2.702 1.242 6.482 6.482 0 0 0-1.849 2.395z" fill="#005A30"/></svg>