<svg width="30" height="28" fill="none" xmlns="http://www.w3.org/2000/svg"><path fill-rule="evenodd" clip-rule="evenodd" d="M20.895 26.778c-.32.498-1.264 1.312-1.763 1.077-.683-.322-2.08-2.29-2.686-2.861-.114-.107-.346-.459-.524-.441-.334.033-.784.353-1.125.446-1.507.409-3.035 1.017-4.577 1.253-.542.082-1.857.307-2.307-.25-1.116-1.378 1.884-2.614 2.68-3.081.334-.196.676-.377.984-.613.187-.142 1.78-1.19 1.424-1.333-.695-.278-2.24.166-2.924.312-1.616.344-3.317.535-4.968.428-.742-.048-2.363.095-2.729-.8-.136-.332.22-.919.37-1.2.919-1.713 2.694-1.342 4.284-1.7.616-.138 1.284-.282 1.836-.606.031-.018.106-.02.094-.055-.112-.32-2.219-.902-2.538-1.01-1.745-.595-3.73-1.444-5.062-2.78-.27-.27-1.893-1.48-1.15-2.16.527-.48 1.642-.159 1.886-.122 2.161.324 4.315.621 6.372 1.412.824.316 1.618.664 2.463.92.05.015.743.263.774.101.047-.25-.9-1.717-1.043-1.959-.29-.49-.586-.975-.868-1.47-.772-1.36-3.4-4.927-1.246-6.263.614-.38 1.265.432 1.671.83 1.455 1.424 2.494 3.168 3.569 4.892.35.562.67 1.14.998 1.715l.437.769c-.44-.773-.433-1.809-.477-2.675-.11-2.171.18-4.552.94-6.597.583-1.57 1.833-3.003 3.392-1.583 1.904 1.733.552 6.107.3 8.312-.11.962-.206 1.922-.274 2.888-.02.277-.041.555-.049.833-.004.138-.001.277.01.414.002.026-.004.1.004.076.602-1.906 3.236-3.907 4.797-4.935.551-.362 1.756-1.289 2.367-.483.449.592.244 1.483.017 2.126-.576 1.627-1.772 2.866-3.023 3.987-.51.457-1.018.916-1.484 1.419-.023.024-.518.588-.474.605.104.04 1.479-.817 1.616-.898 1.362-.798 2.714-1.868 4.214-2.371.444-.149 2.032-.646 2.084.293.042.759-1.545 2.351-2 2.855-1.403 1.553-2.919 2.8-4.597 4.041-.637.472-1.389 1-2.126 1.304-.237.098-1.28.384-1.275.62.002.125.703 1.597.8 1.845.174.453 1.227 1.975.906 2.473z" fill="#F3CC89"/></svg>