<svg width="80" height="79" fill="none" xmlns="http://www.w3.org/2000/svg"><path fill-rule="evenodd" clip-rule="evenodd" d="M52.895 63.452c-.702 1.072-2.766 2.826-3.858 2.319-1.492-.693-4.548-4.932-5.876-6.162-.248-.23-.756-.988-1.144-.95-.733.072-1.716.761-2.462.96-3.296.882-6.639 2.192-10.013 2.699-1.185.178-4.06.662-5.047-.537-2.441-2.968 4.122-5.63 5.865-6.637.73-.421 1.477-.812 2.152-1.32.409-.306 3.895-2.561 3.113-2.87-1.519-.6-4.898.357-6.395.67-3.535.741-7.256 1.152-10.867.922-1.624-.103-5.17.205-5.97-1.721-.298-.716.48-1.98.808-2.584 2.01-3.69 5.895-2.892 9.372-3.661 1.348-.3 2.81-.61 4.017-1.308.068-.039.23-.044.204-.118-.245-.69-4.853-1.943-5.552-2.177-3.817-1.279-8.16-3.108-11.072-5.985-.59-.583-4.14-3.188-2.515-4.652 1.151-1.036 3.591-.343 4.124-.264 4.729.697 9.44 1.339 13.94 3.04 1.801.681 3.538 1.431 5.387 1.982.11.033 1.627.566 1.694.218.103-.54-1.97-3.698-2.282-4.219-.636-1.055-1.281-2.1-1.898-3.168-1.69-2.927-7.437-10.61-2.726-13.487 1.344-.82 2.768.93 3.655 1.786 3.183 3.068 5.456 6.823 7.806 10.538.765 1.21 1.468 2.454 2.183 3.693l.957 1.657c-.961-1.665-.948-3.897-1.044-5.763-.24-4.675.394-9.802 2.056-14.207 1.277-3.383 4.01-6.468 7.42-3.41 4.166 3.733 1.208 13.152.657 17.902-.24 2.072-.45 4.14-.6 6.22-.043.598-.09 1.196-.106 1.795-.008.297-.002.596.021.892.004.054-.007.215.01.163 1.317-4.106 7.079-8.415 10.494-10.629 1.205-.78 3.841-2.775 5.176-1.04.982 1.276.534 3.195.037 4.58-1.258 3.503-3.874 6.172-6.613 8.587-1.115.983-2.225 1.972-3.246 3.055-.05.053-1.132 1.268-1.036 1.304.228.085 3.234-1.76 3.535-1.934 2.979-1.72 5.936-4.024 9.219-5.108.97-.32 4.445-1.39 4.558.633.091 1.633-3.38 5.063-4.376 6.148-3.068 3.345-6.384 6.03-10.055 8.704-1.395 1.016-3.038 2.152-4.65 2.807-.52.211-2.8.83-2.79 1.336.005.27 1.539 3.44 1.748 3.974.384.977 2.687 4.255 1.985 5.327z" fill="#F3CC89"/></svg>