<svg width="16" height="20" fill="none" xmlns="http://www.w3.org/2000/svg"><path d="M3.857 18c.377-.87.586-1.289.96-2.16-1.701-.824-1.644-1.653-2.297-2.75C1.912 12.067.96 11.05.752 9.855c-.132-.758-.077-2.115.556-2.664.756-.656 1.878.469 2.31.998.747.917 1.21 2.019 1.61 3.124.065.182.122.352.1.547l.008-.07.043-.395c.076-.695.124-1.38.152-2.078.02-.503.116-.99.228-1.478a1.69 1.69 0 0 0 .057-.459c-.008-.114-.102-.255-.147-.359a6.68 6.68 0 0 1-.362-1.02c-.294-1.17-.55-2.361-.38-3.57.096-.688.268-2.47 1.334-2.412.47.025.831.451 1.019.838.311.644.39 1.338.41 2.043.004.131-.034.756.147.294.381-.97.657-1.851 1.515-2.509.605-.463 1.63-.256 1.97.437.266.543.127 1.225.011 1.795l-.004.022c-.123.603-.332 1.136-.584 1.693-.052.115-.85 2.905-.53 2.479 1.014-1.352 1.715-2.375 2.58-2.827 0 0 1.327-.95 1.832-.743.487.2.642.485.515 1.005-.169.694-.581 1.323-.9 1.955-.45.892-.85 1.813-1.412 2.646-.566.841-1.293 1.505-2.088 2.126-.638.499-1.342.89-2.01 1.346-.042.029-.52.324-.318.299.745-.093 1.506-.244 2.258-.168.524.053 1.038.13 1.538.303.258.089.64.189.836.39.261.265.223.751.05 1.052-.233.408-.697.694-1.087.934l-.003.002c-.75.462-1.67.657-2.505.916-.712.222-1.454.495-2.202.579-.354.04-.786-.102-.923.29-.258.736-.45 1.473-.615 2.234-.091.426-.306.343-.683.302-.392-.043-1.413-.29-1.45-.792-.025-.325.103-.67.23-.961z" fill="#F3CC89"/></svg>