<svg width="32" height="45" fill="none" xmlns="http://www.w3.org/2000/svg"><path d="M7.07 40.41c.824-1.91 1.281-2.828 2.1-4.742-3.722-1.809-3.597-3.63-5.025-6.04C2.816 27.383.733 25.15.278 22.526c-.29-1.666-.168-4.645 1.215-5.85 1.654-1.442 4.11 1.029 5.053 2.19 1.635 2.014 2.65 4.435 3.522 6.862.144.399.267.773.22 1.2l.017-.153.094-.866c.167-1.527.271-3.03.333-4.565.044-1.103.253-2.174.498-3.246.07-.305.148-.693.125-1.008-.018-.249-.224-.56-.321-.788-.317-.738-.597-1.46-.792-2.242-.644-2.568-1.202-5.184-.833-7.837.21-1.511.587-5.426 2.92-5.299 1.03.057 1.818.993 2.228 1.842.681 1.413.855 2.939.898 4.487.008.287-.075 1.659.322.644.833-2.131 1.436-4.064 3.313-5.508 1.323-1.018 3.567-.564 4.31.96.582 1.191.278 2.689.024 3.941l-.01.047c-.269 1.325-.726 2.495-1.277 3.718-.114.254-1.859 6.38-1.16 5.444 2.219-2.969 3.752-5.215 5.644-6.209 0 0 2.904-2.086 4.009-1.63 1.064.438 1.403 1.064 1.126 2.206-.37 1.524-1.272 2.906-1.968 4.293-.985 1.96-1.862 3.982-3.089 5.811-1.24 1.848-2.83 3.306-4.568 4.67-1.396 1.096-2.936 1.956-4.397 2.956-.093.063-1.14.712-.695.656 1.63-.203 3.293-.536 4.94-.369 1.146.117 2.269.288 3.362.666.565.195 1.401.414 1.83.854.572.585.486 1.652.11 2.312-.511.896-1.526 1.524-2.38 2.052l-.005.004c-1.64 1.015-3.655 1.443-5.48 2.013-1.558.485-3.18 1.085-4.817 1.27-.773.087-1.72-.224-2.018.636-.564 1.617-.986 3.236-1.345 4.907-.201.936-.671.752-1.496.663-.857-.094-3.09-.635-3.173-1.739-.054-.715.228-1.472.503-2.111z" fill="#F3CC89"/></svg>