<svg width="58" height="58" fill="none" xmlns="http://www.w3.org/2000/svg"><path fill-rule="evenodd" clip-rule="evenodd" d="M38.213 46.39c-.501.775-1.976 2.043-2.756 1.677-1.066-.501-3.249-3.567-4.197-4.457-.177-.166-.54-.714-.818-.687-.523.052-1.225.551-1.758.695-2.354.638-4.742 1.585-7.152 1.952-.847.129-2.9.478-3.605-.389-1.744-2.146 2.945-4.072 4.19-4.8.52-.304 1.054-.587 1.536-.954.292-.221 2.782-1.853 2.224-2.076-1.084-.434-3.499.258-4.567.485-2.526.535-5.183.833-7.763.667-1.16-.075-3.693.147-4.264-1.245-.213-.518.343-1.433.577-1.869 1.436-2.67 4.21-2.092 6.694-2.648.963-.216 2.007-.441 2.87-.945.048-.029.164-.032.145-.086-.174-.498-3.466-1.405-3.965-1.575-2.727-.924-5.829-2.247-7.909-4.328-.421-.421-2.958-2.306-1.797-3.364.823-.75 2.566-.248 2.947-.191 3.377.504 6.743.968 9.956 2.198 1.287.493 2.528 1.036 3.848 1.433.08.024 1.162.41 1.21.159.074-.39-1.407-2.675-1.63-3.052-.454-.763-.915-1.519-1.355-2.291-1.207-2.117-5.313-7.674-1.947-9.754.959-.593 1.977.672 2.61 1.291 2.273 2.22 3.897 4.935 5.576 7.622.547.874 1.048 1.775 1.56 2.67l.683 1.199c-.687-1.204-.677-2.818-.746-4.168-.171-3.381.281-7.089 1.469-10.275.911-2.446 2.864-4.677 5.3-2.466 2.975 2.7.862 9.512.469 12.947a106.205 106.205 0 0 0-.429 4.499c-.03.432-.064.864-.075 1.297-.006.215-.002.432.015.646.003.04-.006.156.006.118.941-2.97 5.057-6.086 7.496-7.687.861-.565 2.744-2.007 3.698-.753.7.923.381 2.311.026 3.312-.899 2.535-2.768 4.465-4.723 6.211-.797.711-1.59 1.426-2.32 2.21-.035.038-.808.917-.74.943.164.061 2.311-1.273 2.526-1.4 2.127-1.243 4.24-2.91 6.584-3.693.694-.232 3.176-1.006 3.257.457.065 1.182-2.415 3.662-3.126 4.447-2.192 2.42-4.56 4.36-7.183 6.295-.995.734-2.17 1.556-3.321 2.03-.37.153-2 .6-1.993.966.004.195 1.1 2.488 1.25 2.874.273.707 1.918 3.077 1.417 3.853z" fill="#F3CC89"/></svg>