<svg width="58" height="58" viewBox="0 0 58 58" fill="none" xmlns="http://www.w3.org/2000/svg">
<path fill-rule="evenodd" clip-rule="evenodd" d="M38.2128 46.3896C37.7117 47.165 36.2372 48.4334 35.4568 48.0667C34.3911 47.5659 32.2082 44.4999 31.2601 43.6101C31.0826 43.4435 30.7199 42.8957 30.4425 42.9233C29.9195 42.9753 29.2171 43.474 28.6844 43.6182C26.33 44.2557 23.9424 45.203 21.5323 45.5696C20.6854 45.6985 18.6316 46.0485 17.9272 45.1814C16.1834 43.0349 20.8715 41.109 22.1161 40.3815C22.6375 40.0767 23.1711 39.7939 23.6534 39.4273C23.9454 39.2055 26.4354 37.5742 25.8774 37.3509C24.7925 36.9168 22.3783 37.6092 21.3096 37.8359C18.7842 38.3714 16.1266 38.6689 13.5469 38.5026C12.3869 38.4278 9.85434 38.6502 9.28263 37.2575C9.07026 36.7402 9.62571 35.8253 9.86025 35.3891C11.296 32.7197 14.0705 33.2974 16.554 32.7408C17.5174 32.5249 18.5607 32.2997 19.4232 31.7955C19.4719 31.7671 19.5882 31.7637 19.5693 31.7101C19.3945 31.2115 16.1031 30.3045 15.6038 30.1353C12.8774 29.2106 9.77511 27.888 7.69522 25.8073C7.27362 25.3855 4.7374 23.501 5.89844 22.4429C6.72083 21.6934 8.46387 22.1948 8.84455 22.2516C12.2219 22.7559 15.5877 23.2198 18.8012 24.4504C20.088 24.943 21.3287 25.4856 22.6493 25.8834C22.7283 25.9072 23.8113 26.2933 23.8591 26.0415C23.933 25.6511 22.4525 23.3667 22.2288 22.9904C21.7751 22.2268 21.3139 21.4711 20.8737 20.699C19.6665 18.5819 15.5614 13.025 18.9267 10.9451C19.886 10.3521 20.9035 11.6173 21.5375 12.2364C23.8104 14.4556 25.4339 17.1714 27.113 19.858C27.6595 20.7324 28.1613 21.6326 28.6724 22.5288L29.3555 23.7268C28.6691 22.5232 28.6787 20.9088 28.6102 19.5594C28.4389 16.1779 28.8911 12.47 30.0786 9.28439C30.9904 6.8382 32.9426 4.60678 35.3789 6.81796C38.3539 9.51801 36.2412 16.3301 35.848 19.7651C35.6764 21.2638 35.5269 22.759 35.4191 24.264C35.3883 24.6958 35.3553 25.1284 35.3435 25.5615C35.3376 25.7765 35.3418 25.9926 35.3587 26.2069C35.3617 26.2464 35.3532 26.3627 35.3651 26.3252C36.3065 23.3553 40.4218 20.239 42.8614 18.638C43.7221 18.0732 45.605 16.6306 46.5585 17.8854C47.2598 18.8083 46.94 20.1961 46.585 21.1974C45.6864 23.7315 43.8174 25.6618 41.8616 27.408C41.0647 28.1195 40.2721 28.8343 39.5429 29.6175C39.507 29.6561 38.7342 30.5346 38.8027 30.5605C38.9659 30.622 41.1131 29.2875 41.328 29.1619C43.4554 27.9182 45.5679 26.2518 47.9124 25.4681C48.6058 25.2363 51.0878 24.4625 51.1686 25.9255C51.2336 27.1067 48.754 29.5872 48.0431 30.3719C45.8514 32.7912 43.483 34.7328 40.8604 36.6669C39.8645 37.4014 38.6908 38.2234 37.539 38.6972C37.1684 38.8496 35.5387 39.2967 35.5458 39.6628C35.5497 39.8583 36.6456 42.1513 36.7952 42.5372C37.0691 43.2437 38.7139 45.6141 38.2128 46.3896Z" fill="#F3CC89"/>
</svg>
