<svg width="30" height="30" viewBox="0 0 30 30" fill="none" xmlns="http://www.w3.org/2000/svg">
<path d="M0 29.7388L0.635294 24.5699C2.51765 24.7116 3.88235 24.3339 4.72941 23.437C5.57647 22.5401 6.09412 21.3364 6.28235 19.8259C6.47059 18.3153 6.51765 16.6868 6.42353 14.9402H0V0H12.0706V17.7725C12.0706 22.1153 10.9647 25.3724 8.75294 27.5438C6.58824 29.7152 3.67059 30.4469 0 29.7388ZM17.9294 29.7388L18.5647 24.5699C20.4471 24.7116 21.8118 24.3339 22.6588 23.437C23.5059 22.5401 24.0235 21.3364 24.2118 19.8259C24.4 18.3153 24.4471 16.6868 24.3529 14.9402H17.9294V0H30V17.7725C30 22.1153 28.8941 25.3724 26.6824 27.5438C24.5177 29.7152 21.6 30.4469 17.9294 29.7388Z" fill="#EAA734"/>
</svg>
