<svg width="30" height="30" viewBox="0 0 30 30" fill="none" xmlns="http://www.w3.org/2000/svg">
<path d="M30 0.261172L29.2941 5.43007C27.4588 5.28845 26.1176 5.66609 25.2706 6.56297C24.4235 7.45986 23.9059 8.66357 23.7176 10.1741C23.5294 11.6847 23.4824 13.3132 23.5765 15.0598H30V30H17.9294V12.2275C17.9294 7.8847 19.0118 4.62759 21.1765 2.45618C23.3882 0.284775 26.3294 -0.446895 30 0.261172ZM12.0706 0.261172L11.3647 5.43007C9.52941 5.28845 8.18823 5.66609 7.34118 6.56297C6.49412 7.45986 5.97647 8.66357 5.78824 10.1741C5.6 11.6847 5.55294 13.3132 5.64706 15.0598H12.0706V30H0V12.2275C0 7.8847 1.08235 4.62759 3.24706 2.45618C5.45882 0.284775 8.4 -0.446895 12.0706 0.261172Z" fill="#EEB657"/>
</svg>
